<svg width="23" height="23" viewBox="0 0 23 23" fill="none" xmlns="http://www.w3.org/2000/svg">
<g clip-path="url(#clip0_182_2)">
<path d="M6.83291 1.71611C7.27764 2.11592 7.31357 2.79424 6.91377 3.23896L3.6794 6.83271C3.48174 7.05283 3.20322 7.1831 2.90674 7.1876C2.61025 7.19209 2.32725 7.07978 2.11611 6.87314L0.314746 5.07627C-0.103027 4.654 -0.103027 3.97119 0.314746 3.54893C0.73252 3.12666 1.41982 3.12666 1.8376 3.54893L2.83037 4.5417L5.30557 1.79248C5.70537 1.34775 6.38369 1.31182 6.82842 1.71162L6.83291 1.71611ZM6.83291 8.90361C7.27764 9.30342 7.31357 9.98174 6.91377 10.4265L3.6794 14.0202C3.48174 14.2403 3.20322 14.3706 2.90674 14.3751C2.61025 14.3796 2.32725 14.2673 2.11611 14.0606L0.314746 12.2638C-0.10752 11.8415 -0.10752 11.1587 0.314746 10.7409C0.737012 10.3231 1.41982 10.3187 1.8376 10.7409L2.83037 11.7337L5.30557 8.98447C5.70537 8.53975 6.38369 8.50381 6.82842 8.90361H6.83291ZM10.0628 4.3126C10.0628 3.51748 10.7052 2.8751 11.5003 2.8751H21.5628C22.3579 2.8751 23.0003 3.51748 23.0003 4.3126C23.0003 5.10771 22.3579 5.7501 21.5628 5.7501H11.5003C10.7052 5.7501 10.0628 5.10771 10.0628 4.3126ZM10.0628 11.5001C10.0628 10.705 10.7052 10.0626 11.5003 10.0626H21.5628C22.3579 10.0626 23.0003 10.705 23.0003 11.5001C23.0003 12.2952 22.3579 12.9376 21.5628 12.9376H11.5003C10.7052 12.9376 10.0628 12.2952 10.0628 11.5001ZM7.18779 18.6876C7.18779 17.8925 7.83018 17.2501 8.62529 17.2501H21.5628C22.3579 17.2501 23.0003 17.8925 23.0003 18.6876C23.0003 19.4827 22.3579 20.1251 21.5628 20.1251H8.62529C7.83018 20.1251 7.18779 19.4827 7.18779 18.6876ZM2.15654 16.5313C2.72842 16.5313 3.27687 16.7585 3.68124 17.1629C4.08562 17.5673 4.31279 18.1157 4.31279 18.6876C4.31279 19.2595 4.08562 19.8079 3.68124 20.2123C3.27687 20.6167 2.72842 20.8438 2.15654 20.8438C1.58467 20.8438 1.03622 20.6167 0.631844 20.2123C0.227469 19.8079 0.000292956 19.2595 0.000292956 18.6876C0.000292956 18.1157 0.227469 17.5673 0.631844 17.1629C1.03622 16.7585 1.58467 16.5313 2.15654 16.5313Z" fill="#6A6A6A"/>
</g>
<defs>
<clipPath id="clip0_182_2">
<rect width="23" height="23" fill="white"/>
</clipPath>
</defs>
</svg>
